<svg width="80" height="56" viewBox="0 0 80 56" fill="none" xmlns="http://www.w3.org/2000/svg">
<path d="M56 28C56 43.464 43.464 56 28 56C12.536 56 0 43.464 0 28C0 12.536 12.536 0 28 0C43.464 0 56 12.536 56 28Z" fill="#0099EE"/>
<path d="M80 10C80 15.5228 75.5228 20 70 20C64.4772 20 60 15.5228 60 10C60 4.47715 64.4772 0 70 0C75.5228 0 80 4.47715 80 10Z" fill="#F36868"/>
<path d="M54 28C54 42.3594 42.3594 54 28 54C13.6406 54 2 42.3594 2 28C2 13.6406 13.6406 2 28 2C42.3594 2 54 13.6406 54 28ZM78 10C78 14.4183 74.4183 18 70 18C65.5817 18 62 14.4183 62 10C62 5.58172 65.5817 2 70 2C74.4183 2 78 5.58172 78 10Z" stroke="white" stroke-width="4"/>
</svg>
